<svg xmlns="http://www.w3.org/2000/svg" viewBox="0 0 35 35"><defs><style>.cls-1{fill:#cc4e2c;}.cls-2{fill:#ac3a21;}.cls-3{fill:#333;}.cls-4{fill:#999;}.cls-5{fill:#666;}.cls-6{fill:#ffc038;}</style></defs><title>restaurant-icon</title><g id="base_layer" data-name="base layer"><circle class="cls-1" cx="17.5" cy="17.5" r="17.5"/><path class="cls-2" d="M7211.1,7197.19a17.11,17.11,0,0,1-13.68,12.72l-20-21.8a15.49,15.49,0,0,1,12.74-12.59Z" transform="translate(-7176.64 -7175.36)"/></g><g id="res"><circle class="cls-3" cx="14.92" cy="13.63" r="0.67"/><path class="cls-4" d="M7191.45,7194.76h-6a6,6,0,0,1,6-6Z" transform="translate(-7176.64 -7175.36)"/><path class="cls-5" d="M7191.45,7188.76a6,6,0,0,1,6,6h-6Z" transform="translate(-7176.64 -7175.36)"/><rect class="cls-3" x="3.73" y="19.4" width="27.54" height="1.38"/><ellipse class="cls-3" cx="7204.8" cy="7184.73" rx="1.72" ry="0.41" transform="translate(-10146.77 23.56) rotate(-45)"/><rect class="cls-6" x="26.52" y="10.37" width="1.64" height="9.02"/></g></svg>